<svg xmlns="http://www.w3.org/2000/svg" viewBox="0 0 212.52 212.52"><defs><style>.cls-1{fill:#009fdc;}.cls-2{fill:#fff;}</style></defs><g id="Calque_2" data-name="Calque 2"><g id="Calque_1-2" data-name="Calque 1"><circle class="cls-1" cx="106.26" cy="106.26" r="100.76" transform="translate(-21.57 185.26) rotate(-76.72)"/><path class="cls-2" d="M106.26,11A95.26,95.26,0,1,1,11,106.26,95.26,95.26,0,0,1,106.26,11m0-11A106.26,106.26,0,1,0,212.52,106.26,106.38,106.38,0,0,0,106.26,0Z"/><path class="cls-2" d="M64,77.31a13.65,13.65,0,0,1,2.74-1.22,12.8,12.8,0,0,1,4.23-.63,12.36,12.36,0,0,1,5.3,1.07,11,11,0,0,1,3.92,3,13.2,13.2,0,0,1,2.42,4.58A19.78,19.78,0,0,1,83.4,90a17.37,17.37,0,0,1-1,6,12.72,12.72,0,0,1-2.79,4.57,12.25,12.25,0,0,1-4.36,2.88,15.87,15.87,0,0,1-5.75,1,35,35,0,0,1-6.14-.49c-1.77-.32-3.23-.64-4.37-1V63.29l5-.86Zm0,22.18a17.5,17.5,0,0,0,2.11.4,28.42,28.42,0,0,0,3.38.18,8.3,8.3,0,0,0,6.4-2.64c1.6-1.76,2.39-4.26,2.39-7.49a18.17,18.17,0,0,0-.43-4,9.38,9.38,0,0,0-1.39-3.23A6.85,6.85,0,0,0,74,80.57a8,8,0,0,0-3.64-.76,10,10,0,0,0-3.73.68A10.23,10.23,0,0,0,64,81.93Z"/><path class="cls-2" d="M97.66,104.33c-3.06-.06-5.21-.73-6.5-2s-1.92-3.18-1.92-5.82V63.27l5-.85V95.74a7.58,7.58,0,0,0,.22,2,2.8,2.8,0,0,0,.68,1.29,3.15,3.15,0,0,0,1.29.72,11.45,11.45,0,0,0,2,.4Z"/><path class="cls-2" d="M124.92,103q-1.71.42-4.5.9a38.75,38.75,0,0,1-6.47.48,13.78,13.78,0,0,1-5.39-.93,8.77,8.77,0,0,1-3.51-2.64,11,11,0,0,1-1.92-4,21.52,21.52,0,0,1-.58-5.15V76.06h5v14.5c0,3.37.54,5.8,1.61,7.25S112,100,114.5,100c.54,0,1.09,0,1.66,0s1.1-.08,1.6-.13.95-.1,1.36-.17a4.1,4.1,0,0,0,.88-.18V76.06h5V103Z"/><path class="cls-2" d="M130.84,90a17.41,17.41,0,0,1,1.07-6.42A13.88,13.88,0,0,1,134.73,79a11.85,11.85,0,0,1,4.05-2.72,12.72,12.72,0,0,1,4.7-.91q5.6,0,8.58,3.5t3,10.63v.82a9,9,0,0,1-.05.94H136a10.17,10.17,0,0,0,2.51,6.55q2.19,2.23,6.82,2.24a18.33,18.33,0,0,0,4.4-.45,15.9,15.9,0,0,0,2.69-.88l.69,4.16a15.34,15.34,0,0,1-3.18,1,22.81,22.81,0,0,1-5.15.54,16.54,16.54,0,0,1-6.27-1.09,11.49,11.49,0,0,1-6.87-7.58A19.51,19.51,0,0,1,130.84,90Zm19-2.71a8.27,8.27,0,0,0-1.67-5.52,5.76,5.76,0,0,0-4.76-2.16,6.45,6.45,0,0,0-3,.67A7.17,7.17,0,0,0,138.21,82a7.84,7.84,0,0,0-1.4,2.46,12.14,12.14,0,0,0-.67,2.83h13.72Z"/><path class="cls-2" d="M71.06,143.49a14.92,14.92,0,0,1-5.89-1.07,11.61,11.61,0,0,1-4.26-3,12.5,12.5,0,0,1-2.59-4.56,18.94,18.94,0,0,1-.85-5.84,17.76,17.76,0,0,1,.93-5.87A14,14,0,0,1,61,118.55a11.82,11.82,0,0,1,4.19-3,13.48,13.48,0,0,1,5.51-1.08,22.35,22.35,0,0,1,3.73.31,17.94,17.94,0,0,1,3.58,1L76.93,120a12.11,12.11,0,0,0-2.59-.85,14.25,14.25,0,0,0-3.13-.32,7.88,7.88,0,0,0-6.37,2.61Q62.63,124,62.63,129a16.07,16.07,0,0,0,.5,4.11,8.4,8.4,0,0,0,1.61,3.2,7.32,7.32,0,0,0,2.79,2,10.56,10.56,0,0,0,4.17.72,15.69,15.69,0,0,0,3.57-.36,13.24,13.24,0,0,0,2.51-.81l.69,4.17a4.83,4.83,0,0,1-1.22.5c-.54.15-1.14.3-1.81.42s-1.39.23-2.16.31A14.12,14.12,0,0,1,71.06,143.49Z"/><path class="cls-2" d="M116.44,115.94q1.71-.43,4.5-.9a38.67,38.67,0,0,1,6.47-.49,12.19,12.19,0,0,1,4.48.72,8,8,0,0,1,3,2.11c.25-.19.64-.42,1.17-.76a13.77,13.77,0,0,1,2-.93,20.74,20.74,0,0,1,2.61-.8,12.65,12.65,0,0,1,3.09-.36,12.5,12.5,0,0,1,5.22.94,7.57,7.57,0,0,1,3.17,2.64,10,10,0,0,1,1.54,4,30.31,30.31,0,0,1,.4,5.12v15.56h-5V128.35a33.56,33.56,0,0,0-.24-4.22,8.45,8.45,0,0,0-.9-2.92,4.21,4.21,0,0,0-1.81-1.74,6.83,6.83,0,0,0-3-.55,10.89,10.89,0,0,0-4.13.66,8.42,8.42,0,0,0-2.2,1.21,17.53,17.53,0,0,1,.63,3,27.45,27.45,0,0,1,.22,3.46v15.57h-5v-14.5a28.28,28.28,0,0,0-.26-4.21,8.56,8.56,0,0,0-.94-2.93,4.33,4.33,0,0,0-1.81-1.74,6.87,6.87,0,0,0-2.91-.55c-.5,0-1,0-1.6,0l-1.62.14c-.52,0-1,.11-1.42.18a6.22,6.22,0,0,0-.86.17v23.41h-5V115.94Z"/><circle class="cls-2" cx="96.68" cy="128.66" r="14.68"/></g></g></svg>